<?xml version="1.0" standalone="no"?>
<!DOCTYPE svg PUBLIC "-//W3C//DTD SVG 20010904//EN"
 "http://www.w3.org/TR/2001/REC-SVG-20010904/DTD/svg10.dtd">
<svg version="1.0" xmlns="http://www.w3.org/2000/svg"
 width="1920.000000pt" height="1920.000000pt" viewBox="0 0 1920.000000 1920.000000"
 preserveAspectRatio="xMidYMid meet">
<metadata>
Created by potrace 1.11, written by Peter Selinger 2001-2013
</metadata>
<g transform="translate(0.000000,1920.000000) scale(0.100000,-0.100000)"
fill="#000000" stroke="none">
<path d="M4025 17463 c-470 -60 -857 -328 -1063 -738 -51 -102 -95 -228 -116
-330 -57 -283 -2325 -13258 -2330 -13330 -13 -179 -9 -386 8 -460 69 -294 226
-559 436 -739 71 -60 337 -219 423 -251 l67 -25 3307 -25 c1819 -13 3310 -21
3314 -17 3 4 160 615 348 1357 346 1366 398 1565 403 1570 2 2 163 -39 358
-91 502 -134 1252 -327 1683 -435 310 -77 367 -94 362 -108 -6 -20 -565 -2302
-565 -2307 0 -2 1011 -3 2248 -2 l2247 3 240 69 c132 37 265 81 295 96 153 78
364 267 464 419 65 98 137 241 163 326 12 39 553 3093 1203 6789 l1180 6718
-16 257 c-21 342 -29 368 -194 622 -66 101 -144 209 -172 239 -36 38 -113 94
-238 173 -226 142 -269 160 -466 204 -75 17 -410 18 -6819 19 -3707 1 -6753
-1 -6770 -3z m6060 -1158 c1005 -88 2009 -616 2930 -1539 438 -439 701 -817
815 -1171 26 -84 37 -135 27 -135 -2 0 -59 -20 -127 -45 -114 -42 -125 -44
-133 -28 -19 35 -144 149 -200 182 -63 37 -197 85 -267 96 -25 3 -754 148
-1620 320 -866 173 -1604 317 -1640 321 -76 7 -193 -8 -269 -37 -183 -68 -301
-232 -301 -420 0 -87 22 -175 63 -254 41 -79 162 -200 254 -254 39 -23 70 -48
68 -54 -2 -7 -191 -757 -420 -1667 -229 -910 -418 -1663 -421 -1672 -3 -10
-11 -18 -17 -18 -20 -1 -2322 532 -2329 539 -5 4 100 479 233 1056 132 578
282 1239 334 1470 51 231 123 542 159 690 35 149 83 358 106 465 58 270 123
522 166 638 54 149 175 386 259 512 387 575 972 920 1700 1005 150 17 437 17
630 0z m44 -2266 c141 -28 596 -120 1011 -205 415 -86 1040 -213 1389 -284
673 -137 702 -145 793 -220 49 -41 88 -121 88 -182 0 -95 -44 -159 -145 -211
-55 -28 -68 -31 -160 -31 -93 0 -220 24 -1715 328 -1172 238 -1631 335 -1672
353 -64 29 -129 91 -153 149 -19 45 -20 144 -1 188 29 71 110 137 191 157 61
15 123 8 374 -42z m1666 -3504 c968 -460 1762 -838 1764 -840 5 -5 -35 -104
-72 -180 -148 -299 -462 -529 -996 -726 l-64 -24 -392 -1590 c-305 -1240 -394
-1589 -406 -1587 -8 2 -205 81 -439 177 -234 95 -526 214 -650 264 -327 133
-483 230 -643 402 -157 168 -237 340 -245 529 -5 124 11 198 64 304 63 126
142 215 390 442 107 98 222 210 255 248 284 326 361 683 223 1025 -92 229
-239 418 -418 540 -100 69 -365 179 -526 219 -26 7 -34 14 -33 28 1 10 90 375
198 811 107 436 195 795 195 799 0 3 8 4 18 1 9 -3 809 -381 1777 -842z
m-3860 -530 c979 -228 1809 -424 1843 -435 308 -102 562 -333 681 -618 55
-132 65 -306 27 -460 -69 -278 -245 -518 -623 -849 -159 -139 -223 -217 -271
-328 -45 -104 -62 -175 -69 -280 -14 -214 104 -517 272 -703 89 -99 250 -212
413 -291 42 -21 564 -237 1160 -481 595 -244 1082 -449 1082 -454 0 -6 -78
-310 -173 -676 -158 -607 -175 -665 -192 -662 -89 15 -7146 1848 -7165 1861
-43 30 -158 191 -214 301 -88 172 -142 358 -178 615 -16 118 -16 583 0 745 38
369 100 762 147 920 189 639 404 1185 601 1526 201 349 457 603 697 689 56 20
63 21 121 8 33 -8 862 -201 1841 -428z m-2285 -4689 c363 -99 1087 -285 1576
-406 l292 -71 -14 -52 c-514 -1980 -636 -2443 -642 -2448 -9 -8 -523 -189
-537 -189 -5 0 -116 162 -245 360 -129 198 -238 359 -242 360 -5 0 -179 -75
-389 -166 -209 -91 -386 -163 -393 -161 -20 8 -320 449 -319 469 1 9 123 550
272 1202 149 652 271 1188 271 1191 0 11 33 3 370 -89z"/>
<path d="M9403 9149 c-127 -25 -289 -151 -347 -270 -76 -157 -75 -348 2 -493
38 -72 155 -187 223 -220 157 -76 348 -75 493 2 118 62 226 202 262 337 16 59
18 192 3 255 -42 182 -213 350 -397 389 -60 13 -176 13 -239 0z"/>
</g>
</svg>
